<svg xmlns="http://www.w3.org/2000/svg" width="1200" height="520" viewBox="0 0 1200 520" role="img" aria-label="AI & Earth Science Word Cloud Dark Background">
  <defs>
    <style>
      .t { font-family: Arial, sans-serif; font-weight: 700; fill: #ffffff; }
      .tDark { font-family: Arial, sans-serif; font-weight: 700; fill: #0f172a; }
    </style>
  </defs>

  <!-- Dark background -->
  <rect width="1200" height="520" fill="#0b0f19"/>

  <!-- Circles with text inside -->
  <circle cx="345" cy="235" r="50" fill="#3b82f6"/>
  <text x="345" y="240" text-anchor="middle" class="t" font-size="16">NASA</text>

  <circle cx="610" cy="185" r="50" fill="#10b981"/>
  <text x="610" y="190" text-anchor="middle" class="t" font-size="16">USGS</text>

  <circle cx="800" cy="285" r="50" fill="#f59e0b"/>
  <text x="800" y="280" text-anchor="middle" class="t" font-size="8">SD Image</text>
  <text x="800" y="290" text-anchor="middle" class="t" font-size="8">Processing Labs</text>

  <circle cx="955" cy="205" r="50" fill="#a855f7"/>
  <text x="955" y="210" text-anchor="middle" class="t" font-size="18">NSF</text>

  <circle cx="500" cy="340" r="45" fill="#ef4444"/>
  <text x="500" y="345" text-anchor="middle" class="t" font-size="16">SMDI</text>

  <circle cx="90" cy="325" r="42" fill="#ef4444"/>
  <text x="90" y="330" text-anchor="middle" class="t" font-size="10">AI Collective</text>

  <circle cx="120" cy="110" r="38" fill="#ef4444"/>
  <text x="120" y="115" text-anchor="middle" class="t" font-size="10">GCSAYN</text>

  <circle cx="680" cy="370" r="54" fill="#14b8a6"/>
  <text x="680" y="375" text-anchor="middle" class="t" font-size="16">USRA</text>

  <circle cx="920" cy="360" r="48" fill="#f97316"/>
  <text x="920" y="365" text-anchor="middle" class="t" font-size="14">AGU</text>

  <circle cx="1020" cy="300" r="44" fill="#38bdf8"/>
  <text x="1020" y="305" text-anchor="middle" class="t" font-size="12">ESIP</text>

  <circle cx="230" cy="355" r="44" fill="#22c55e"/>
  <text x="230" y="360" text-anchor="middle" class="t" font-size="10">Capital One</text>

  <circle cx="180" cy="290" r="42" fill="#dc2626"/>
  <text x="180" y="295" text-anchor="middle" class="t" font-size="14">DEXIAN</text>

  <circle cx="200" cy="180" r="42" fill="#2dd4bf"/>
  <text x="200" y="180" text-anchor="middle" class="t" font-size="14">YMTS</text>

  <circle cx="470" cy="120" r="40" fill="#fde047"/>
  <text x="470" y="125" text-anchor="middle" class="tDark" font-size="12">JBIET, AP</text>

  <circle cx="350" cy="420" r="44" fill="#8b5cf6"/>
  <text x="350" y="425" text-anchor="middle" class="t" font-size="8">Apollo</text>
  <text x="350" y="435" text-anchor="middle" class="t" font-size="8">Computing Labs</text>
</svg>
